<svg xmlns="http://www.w3.org/2000/svg" width="15" height="20" viewBox="0 0 15 20">
    <g fill="none" fill-rule="evenodd">
        <path d="M-4-1.889h24V21.94H-4z"/>
        <path stroke="#FFF" d="M3.918 2.863H2.156c-.453 0-.708.4-.708.706v14.97c0 .39.318.706.708.706h11.592a.707.707 0 0 0 .709-.706V3.57a.707.707 0 0 0-.709-.706h-1.944"/>
        <path stroke="#FFF" d="M4.166 1.27h7.572v3.07H4.166z"/>
        <path fill="#FFF" d="M11.643 8.016H4.232a.495.495 0 1 1 0-.993h7.41a.495.495 0 0 1 0 .993M11.643 10.465H4.232a.496.496 0 1 1 0-.993h7.41a.496.496 0 0 1 0 .993M11.643 12.914H4.232a.496.496 0 1 1 0-.993h7.41a.496.496 0 0 1 0 .993M11.643 15.364H4.232a.496.496 0 0 1 0-.993h7.41a.496.496 0 1 1 0 .993"/>
    </g>
</svg>
