<svg xmlns="http://www.w3.org/2000/svg" width="15" height="20" viewBox="0 0 15 20">
    <g fill="none" fill-rule="evenodd">
        <path d="M-4-2h24v24H-4z"/>
        <path stroke="#98A1A5" d="M3.918 2.787H2.156c-.453 0-.708.402-.708.71v15.079c0 .392.318.71.708.71h11.592a.71.71 0 0 0 .709-.71V3.496a.71.71 0 0 0-.709-.71h-1.944"/>
        <path stroke="#98A1A5" d="M4.166 1.182h7.572v3.092H4.166z"/>
        <path fill="#98A1A5" d="M11.643 7.976H4.232a.497.497 0 0 1-.495-.5c0-.277.222-.5.495-.5h7.41c.274 0 .495.223.495.5s-.221.5-.494.5M11.643 10.443H4.232a.497.497 0 0 1-.495-.5c0-.276.222-.5.495-.5h7.41c.274 0 .495.224.495.5 0 .277-.221.5-.494.5M11.643 12.91H4.232a.497.497 0 0 1-.495-.5c0-.276.222-.5.495-.5h7.41c.274 0 .495.224.495.5s-.221.5-.494.5M11.643 15.377H4.232a.498.498 0 0 1-.495-.5c0-.277.222-.5.495-.5h7.41c.274 0 .495.223.495.5 0 .276-.221.5-.494.5"/>
    </g>
</svg>
